<?xml version="1.0" encoding="utf-8"?>
<!-- Generator: Adobe Illustrator 21.0.0, SVG Export Plug-In . SVG Version: 6.00 Build 0)  -->
<svg version="1.1" id="Layer_1" xmlns="http://www.w3.org/2000/svg" xmlns:xlink="http://www.w3.org/1999/xlink" x="0px" y="0px"
	 viewBox="0 0 366.1 177.6" style="enable-background:new 0 0 366.1 177.6;" xml:space="preserve">
<style type="text/css">
	.st0{fill:#4D4E50;}
	.st1{fill:#FEDD01;}
	.st2{fill:#4E4F51;}
	.st3{fill:#58595B;}
	.st4{fill:#FDFBED;}
</style>
<g>
	<rect x="162.8" y="53.9" class="st0" width="18.2" height="18.2"/>
	<g>
		<g>
			<path class="st1" d="M202.8,63.8c-0.1-0.2-0.1-0.3,0-0.5c-0.2-0.2-0.2-0.4-0.2-0.6c0-0.1,0-0.1-0.1-0.2v-0.1
				c-0.2-0.2-0.3-0.4-0.3-0.6c-0.5-0.9-1.4-1.5-2.3-2c-0.2,0-0.2-0.1-0.3-0.2c-0.2-0.1-0.5-0.2-0.7-0.3l0,0l0,0
				c-0.1-0.1-0.2-0.1-0.2-0.2l0,0c-0.3-0.1-0.6-0.2-0.9-0.5c-0.2,0-0.2-0.1-0.4-0.2c-0.4-0.1-0.7-0.2-1-0.5c-0.2,0-0.2-0.1-0.4-0.2
				c-0.1,0-0.2-0.1-0.2-0.1c-0.2,0-0.5-0.2-0.6-0.3c-0.4-0.1-0.7-0.3-1-0.5c-0.2,0-0.2-0.1-0.4-0.2c-0.2-0.1-0.3-0.2-0.5-0.2
				c-0.2,0-0.2-0.1-0.4-0.2c-0.4-0.1-0.7-0.3-1-0.5c-0.2,0-0.2-0.1-0.4-0.2c-0.2,0-0.2-0.1-0.3-0.2c-0.5-0.2-0.9-0.4-1.3-0.7
				c-0.1,0-0.1,0-0.2-0.1c-0.2,0-0.2-0.1-0.4-0.2c-0.2,0-0.2-0.1-0.3-0.2c-0.4-0.1-0.7-0.2-1-0.5c-0.2,0-0.3-0.1-0.5-0.2
				c-0.2-0.1-0.5-0.1-0.6-0.3h-0.1l0,0c-0.2,0-0.4-0.1-0.5-0.2c-0.1,0-0.1,0-0.1-0.1c-0.2,0-0.2-0.1-0.3-0.2c-0.2,0-0.3-0.1-0.5-0.2
				c-0.2-0.1-0.5-0.2-0.6-0.3h-0.1l0,0c-0.2,0-0.4-0.1-0.5-0.2c-0.3-0.2-0.6-0.3-0.9-0.5c-0.2-0.1-0.5-0.2-0.6-0.3h-0.1l0,0
				c-0.2,0-0.4-0.1-0.5-0.2c-0.3-0.2-0.6-0.3-0.9-0.5c-0.2-0.1-0.5-0.1-0.6-0.3c-0.1,0-0.2-0.1-0.2-0.1c-0.2,0-0.3-0.1-0.4-0.2
				c-0.1,0-0.1,0-0.1-0.1c-0.2,0-0.3-0.1-0.3-0.2l0,0l0,0c-0.4-0.1-0.7-0.2-1-0.5c-0.1,0-0.2-0.1-0.2-0.1c-0.2,0-0.3-0.1-0.5-0.2
				c-0.1,0-0.1,0-0.1-0.1c-0.5-0.2-1-0.4-1.4-0.7c-0.1,0-0.2-0.1-0.2-0.1c-0.2,0-0.3-0.1-0.5-0.2c-0.1,0-0.1,0-0.1-0.1
				c-0.2,0-0.2,0-0.3-0.2c-0.2,0-0.3-0.1-0.4-0.2c-0.3-0.1-0.5-0.2-0.8-0.4c-0.2,0-0.2-0.1-0.3-0.2c-0.2,0-0.2,0-0.3-0.2
				c-0.1,0-0.1,0-0.1-0.1c-0.2,0-0.2-0.1-0.3-0.2c-0.2,0-0.2-0.1-0.3-0.2c-0.3-0.1-0.5-0.2-0.8-0.4c-0.2,0-0.2-0.1-0.3-0.2
				c-0.3-0.1-0.5-0.2-0.8-0.4c-0.5-0.2-1-0.4-1.4-0.7c-0.3-0.1-0.5-0.2-0.8-0.4c-0.2,0-0.2,0-0.3-0.2c-0.3-0.1-0.5-0.2-0.8-0.4
				c-0.2,0-0.2-0.1-0.3-0.2c-0.2,0-0.2,0-0.3-0.2c-0.2,0-0.4-0.1-0.5-0.2c-0.2,0-0.2,0-0.3-0.2c-0.3-0.1-0.5-0.2-0.8-0.4
				c-0.2,0-0.2-0.1-0.3-0.2c-0.2,0-0.2,0-0.3-0.2c-0.2,0-0.4-0.1-0.5-0.2c-0.2,0-0.2-0.1-0.3-0.2c-0.3-0.1-0.5-0.2-0.8-0.4
				c-0.2,0-0.2-0.1-0.3-0.2c-0.2,0-0.2,0-0.3-0.2c-0.3-0.1-0.6-0.2-0.9-0.4c-0.2,0-0.2-0.1-0.4-0.1c-0.1,0-0.2,0-0.2-0.1
				c-0.2,0-0.2,0-0.4,0c-0.2,0-0.5,0-0.7,0c-0.2,0-0.5,0-0.7,0.1c-0.1,0.1-0.2,0.2-0.2,0.1c-0.1,0-0.2,0.1-0.3,0.1
				c-0.2,0.2-0.5,0.3-0.7,0.4c0,0-0.1,0.1-0.1,0c-0.1,0.1-0.2,0.1-0.2,0.2c-0.2,0.1-0.2,0.2-0.4,0.3c-0.1,0.2-0.2,0.2-0.3,0.2
				c-0.4,0.5-0.8,1-1,1.6c0,0.2,0,0.3-0.2,0.4c0,0.1-0.1,0.2-0.1,0.3c0.1,0.2,0.1,0.3-0.1,0.4c0,0.3,0,0.5,0,0.9c0,12.3,0,24.6,0,37
				c0,0.4,0,0.9,0,1.3c0.1,0.1,0.1,0.2,0.1,0.2c0,0.1,0,0.2,0.1,0.3c0.1,0.1,0.2,0.2,0.1,0.2c0.2,0.3,0.2,0.6,0.4,0.9
				c0.2,0.1,0.2,0.2,0.2,0.3c0.1,0.2,0.2,0.2,0.3,0.4c0.3,0.1,0.5,0.3,0.6,0.5c0.1,0,0.2,0.1,0.2,0.2c0.1,0,0.1,0.1,0.2,0.1
				c0.1,0,0.1,0,0.1,0c0.3,0.2,0.8,0.2,1,0.5c0.1,0,0.1,0,0.2,0c0.2-0.1,0.3-0.1,0.4,0.1c0.4,0,0.7,0,1.1,0c0.2-0.2,0.3-0.2,0.5-0.1
				c0.1,0,0.2-0.1,0.3-0.1c0.1-0.1,0.2-0.2,0.2-0.1c0.2-0.1,0.3-0.2,0.5-0.2l0,0l0,0c0.2-0.1,0.4-0.2,0.5-0.3
				c0.2-0.2,0.3-0.2,0.5-0.2c0.2-0.1,0.3-0.2,0.5-0.2c0.2-0.2,0.3-0.3,0.5-0.3c0.6-0.4,1.3-0.7,2-0.9c0.1-0.1,0.1-0.2,0.2-0.2
				c0.5-0.3,1-0.5,1.6-0.8c0.2-0.2,0.3-0.3,0.5-0.3c0.2-0.2,0.4-0.2,0.5-0.3c0.2-0.2,0.4-0.3,0.6-0.3c0.2-0.1,0.3-0.2,0.5-0.2
				c0.2-0.2,0.3-0.2,0.5-0.2c0.2-0.2,0.4-0.2,0.5-0.3c0.2-0.2,0.4-0.3,0.6-0.3c0.2-0.1,0.3-0.2,0.5-0.2c0.2-0.2,0.3-0.2,0.5-0.2
				c0.2-0.2,0.5-0.4,0.9-0.4c0.1-0.2,0.2-0.2,0.4-0.2c0.2-0.1,0.3-0.2,0.5-0.2c0.2-0.2,0.3-0.2,0.5-0.2c0.2-0.2,0.5-0.4,0.9-0.4
				c0.1-0.2,0.2-0.2,0.4-0.2c0.2-0.1,0.3-0.2,0.5-0.2c0.2-0.2,0.3-0.2,0.5-0.2c0.3-0.2,0.6-0.4,0.9-0.5c0.1-0.1,0.2-0.1,0.2-0.2
				c0.2-0.1,0.3-0.2,0.5-0.2c0.2-0.2,0.3-0.2,0.5-0.2c0.2-0.2,0.5-0.4,0.9-0.4c0.1-0.2,0.2-0.2,0.4-0.2c0.2-0.1,0.3-0.2,0.5-0.2
				c0.2-0.2,0.4-0.3,0.6-0.3c0.5-0.3,1-0.5,1.6-0.8c0.2-0.2,0.4-0.3,0.6-0.3c0.2-0.1,0.2-0.2,0.5-0.2c0.2-0.2,0.4-0.2,0.6-0.3
				c0.2-0.1,0.3-0.2,0.5-0.2c0.2-0.2,0.2-0.2,0.5-0.2c0.2-0.2,0.5-0.4,0.9-0.4c0.1-0.2,0.2-0.2,0.4-0.2c0.2-0.1,0.3-0.2,0.5-0.2
				c0.2-0.2,0.2-0.2,0.5-0.2c0.2-0.2,0.5-0.4,0.9-0.4c0.1-0.2,0.2-0.2,0.4-0.2s0.2-0.2,0.5-0.2c0.2-0.2,0.4-0.3,0.6-0.3
				c0.2-0.2,0.5-0.2,0.8-0.4c0.1-0.1,0.2-0.1,0.2-0.2c0.2-0.1,0.3-0.2,0.5-0.2c0.2-0.2,0.4-0.2,0.5-0.3c0.2-0.2,0.5-0.3,0.7-0.3
				c0.1-0.2,0.2-0.2,0.4-0.2c0.1,0,0.2-0.1,0.2-0.1c0.2-0.2,0.5-0.4,0.9-0.5c0.2-0.1,0.5-0.2,0.7-0.3c0.2-0.2,0.3-0.2,0.5-0.2
				c0.1-0.1,0.2-0.2,0.2-0.2s0.1,0,0.2-0.1c0.2-0.2,0.3-0.2,0.5-0.3s0.5-0.2,0.7-0.3c0.2-0.2,0.3-0.2,0.5-0.2
				c0.1-0.1,0.2-0.2,0.3-0.2l0,0c0.2-0.2,0.4-0.3,0.6-0.4c0.6-0.3,1.2-0.6,1.8-1c0.1,0,0.1-0.1,0.2-0.1c0.7-0.6,1.1-1.3,1.4-2.2
				c0-0.2,0-0.3,0.1-0.4c0-0.2,0-0.2,0-0.4C202.7,64.3,202.7,64.1,202.8,63.8z M178.8,63c0,0.8,0,1.6,0,2.3c0,0.5-0.2,0.6-0.5,0.5
				c-1.3,0-2.4,0-3.7,0c-0.6,0-0.8,0.2-0.7,0.8c0.1,1.3,0,2.4,0,3.7c0,0.5-0.2,0.6-0.5,0.6c-0.8,0-1.6,0-2.4,0
				c-0.3,0-0.5-0.1-0.5-0.5c0-0.7,0-1.4,0-2.1c0-0.6,0-1.3,0-1.9c0-0.4-0.1-0.5-0.5-0.5c-1.3,0-2.6,0-3.8,0c-0.5,0-0.6-0.2-0.6-0.6
				c0-0.8,0-1.6,0-2.3c0-0.5,0.2-0.5,0.6-0.5c1.3,0,2.5,0,3.8,0c0.5,0,0.6-0.2,0.6-0.6c0-1.3,0-2.5,0-3.8c0-0.5,0.2-0.5,0.5-0.5
				c0.8,0,1.6,0.1,2.3,0c0.5,0,0.6,0.2,0.6,0.7c0,1.2,0,2.4,0,3.6c0,0.5,0.2,0.7,0.7,0.7c1.2,0,2.4,0,3.6,0
				C178.7,62.5,178.8,62.5,178.8,63z"/>
		</g>
		<path class="st2" d="M229.8,101.5c0.1,0,0.2,0,0.2,0c0.4,0,0.8,0.1,1.2,0.1c1.3,0,2.5,0.3,3.1,1.6c0.3,0.6,0.4,1.3,0.6,2
			c0.7,2.7,1.4,5.2,2,7.9c0.5,2.3,1.2,4.5,1.7,6.8c0.2,1.1,0.6,2.2,0.9,3.3c0.5,2.7,1.4,5.4,1.9,8.2c0.2-0.2,0.3-0.5,0.4-0.6
			c0.5-2,1.1-4,1.6-5.9c0.5-1.9,1.2-3.7,1.6-5.6c0.2-0.9,0.6-2,0.9-2.9c0.5-1.8,1.1-3.7,1.6-5.5c0.3-1.3,0.7-2.5,1-3.8
			c0.5-1.6,0.9-3.1,1.4-4.8c0.1-0.4,0.2-0.5,0.6-0.5c0.9,0,1.7,0,2.6,0c0.4,0,0.5,0.2,0.5,0.5c0.2,1.1,0.7,2.3,0.9,3.4
			c0.4,1.8,0.9,3.6,1.4,5.4c0.5,2,1,4.1,1.6,6.1c0.5,1.6,0.9,3.3,1.3,4.9c0,0.2,0,0.3,0.1,0.4c0,0.1,0,0.2,0,0.3
			c0.6,2.3,1.3,4.7,1.8,7c0.1,0.4,0.2,0.8,0.2,1.2c0,0.2,0.1,0.3,0.2,0.2c0.2,0,0.1-0.2,0.1-0.2c0.2-0.7,0.3-1.4,0.5-2.1
			c0.6-2.5,1.3-5.1,1.9-7.6c0.6-2.4,1.2-4.8,1.8-7.2c0.9-3.4,1.6-6.6,2.5-10c0.5-1.7,1.2-2.3,3-2.4c0.3,0,0.5-0.1,0.9-0.1
			c0.5,0.1,0.9,0.1,1.3,0c0.5,0,0.5,0.2,0.5,0.6c0,0.4,0,0.8,0,1.3c0,1.3,0,1.3-1.3,1.4c-0.3-0.1-0.5,0.1-0.7,0.4
			c-0.2,0.2-0.3,0.5-0.3,0.7c-0.4,1.4-0.7,2.8-1.1,4.1c-0.5,2-0.9,4.1-1.6,6.1c-0.9,3.1-1.6,6.3-2.5,9.5c-0.9,3.4-1.8,6.8-2.7,10.2
			c-0.1,0.3-0.2,0.4-0.4,0.4c-1.2,0-2.3,0-3.4,0c-0.3,0-0.4-0.2-0.5-0.4c-0.3-0.6-0.3-1.3-0.5-2c-0.5-1.6-0.9-3.3-1.4-4.9
			c-0.5-2.1-1-4.1-1.6-6.3c-0.3-1.1-0.6-2.2-0.9-3.2c-0.5-1.9-1-3.8-1.5-5.6c-0.3-1.4-0.7-2.7-1-4.1c-0.2-0.7-0.4-1.4-0.5-2.2
			c-0.2,0.1-0.3,0.2-0.3,0.4c-0.4,2.1-1,4.2-1.6,6.3c-1.6,5.2-3,10.6-4.6,15.8c-0.3,0.9-0.5,2-0.8,2.9c-0.3,0.8-0.5,1.5-0.6,2.3
			c0,0.8-0.5,1.1-1.3,1.1c-0.9,0-1.9-0.1-2.7,0c-0.5,0-0.6-0.2-0.7-0.5c-0.4-2-0.9-3.8-1.4-5.7c-0.4-1.3-0.8-2.6-1-3.9
			c-0.4-1.7-0.9-3.4-1.3-5.2c-0.2-0.9-0.6-1.9-0.8-2.8c-0.5-2.2-1.2-4.3-1.6-6.5c-0.4-1.8-0.9-3.6-1.4-5.3c-0.2-0.7-0.5-1.4-1.3-1.6
			c-0.4-0.1-0.9,0.2-1.1-0.2c-0.2-0.4-0.1-0.9-0.1-1.3c0-0.3,0-0.6,0-0.9C229,101.6,229.2,101.5,229.8,101.5z"/>
		<path class="st0" d="M158.2,101.5c0.2,0.1,0.2,0.1,0.4,0c0.4,0,0.7,0.1,1.1,0.1c0.9,0.1,1.6,0.5,2,1.3c0.5,0.9,0.9,1.9,1.3,2.9
			c0.5,1.6,1.1,3.1,1.6,4.7c0.9,2.3,1.6,4.5,2.5,6.7c0.8,2.1,1.6,4.1,2.3,6.3c0.8,2.2,1.7,4.4,2.3,6.6c0.2,0.6,0.3,1.3,0.5,2
			c0.5-1.6,0.8-3,1.3-4.5c1.1-2.8,2-5.7,3.1-8.5c0.6-1.7,1.3-3.4,1.9-5.2c0.5-1.6,1.2-3.3,1.8-4.9c0.5-1.3,0.9-2.5,1.3-3.8
			c0.5-1.1,0.8-2.3,1.7-3.2c0.2-0.2,0.4-0.3,0.7-0.4c0.8-0.2,1.6-0.2,2.3-0.2c0.2,0,0.5,0.1,0.7,0.1c4,0,8,0,12,0
			c0.2,0,0.5,0,0.7-0.1c0.6,0,0.9,0.2,0.8,0.9c-0.1,0.5,0,1.2,0,1.7c0,0.4-0.2,0.5-0.5,0.5c-0.7,0-1.4,0-2.2,0
			c-0.5,0-0.6,0.1-0.6,0.6c0,8.9,0,17.8,0,26.6c0,1.2,0,1.2,1.2,1.1c0.5,0,0.9,0,1.3,0c0.2,0.2,0.8-0.2,0.8,0.4c0,0.9,0,1.9,0,2.7
			c-0.3,0-0.5,0-0.8,0c-2.5,0-4.9,0-7.4,0c-0.5,0-1.3,0.2-1.6-0.1c-0.3-0.3-0.1-1.1-0.1-1.6c0-1.3,0-1.3,1.3-1.4c0.5,0,0.9,0,1.3,0
			c0.6,0.2,0.6-0.2,0.6-0.7c0-8.8,0-17.5,0-26.3c0-0.3-0.1-0.7,0-1c0-0.3-0.1-0.4-0.4-0.4c-2.2,0-4.3,0-6.5,0
			c-0.5,0-0.9,0.2-1.3,0.8c-0.6,1.3-1,2.7-1.6,3.9c-0.5,1.2-0.8,2.3-1.3,3.5c-0.7,1.7-1.3,3.5-2,5.3c-0.9,2.3-1.7,4.6-2.6,7
			c-0.5,1.4-1,2.8-1.6,4.2c-0.9,2.1-1.6,4.2-2.3,6.4c-0.2,0.4-0.4,0.5-0.8,0.5c-0.7,0-1.3,0-2,0c-1.2,0-1.3,0-1.6-1
			c-1-3-2.2-5.9-3.3-8.8c-0.6-1.8-1.3-3.5-2-5.3c-0.6-1.7-1.3-3.4-2-5.2c-0.6-1.7-1.3-3.5-2-5.2c-0.5-1.3-1-2.7-1.5-4.1
			c-0.4-1.3-0.8-1.6-2.2-1.7c-0.2,0-0.3,0-0.4-0.2c0-1,0-2,0-3C157.3,101.5,157.8,101.5,158.2,101.5z"/>
		<path class="st0" d="M135.6,101.5c0.5,0.1,0.9,0.1,1.3,0c0.5,0,1.2,0,1.7,0.1c1.2,0.2,1.9,0.9,2,2c0,0.2,0.1,0.4,0.1,0.6
			c0,3.5,0,7.1-0.1,10.6c0,0.2-0.2,0.4,0.1,0.5c0.2,0.1,0.2-0.2,0.2-0.3c0.2-0.7,0.9-1.2,1.3-1.7c0.5-0.5,1.2-1.2,1.9-1.5
			c2.1-0.9,4.3-1.3,6.6-0.9c3,0.5,5.3,2,6.9,4.5c0.5,0.9,1.2,1.8,1.4,2.8c0.5,1.6,0.8,3.4,0.8,5.1c0,0.3,0,0.6,0,0.9
			c-0.1,2.2-0.4,4.3-1.4,6.3c-0.7,1.5-1.6,2.8-2.9,3.8c-2,1.6-4.3,2.4-6.9,2.4c-0.2,0-0.5,0-0.7,0c-0.3,0-0.7-0.1-1-0.1
			c-0.9-0.2-1.9-0.2-2.7-0.8c-1.3-0.8-2.4-1.6-3.2-2.8c-0.1-0.2-0.2-0.3-0.3-0.4l0,0c-0.1-0.2-0.2-0.4-0.4-0.6
			c0.1,0.2,0.1,0.4,0.1,0.6c0,1,0,2,0,3c0,0.3-0.1,0.5-0.4,0.5c-0.9,0-1.6,0-2.5,0c-0.2,0-0.4,0-0.5-0.3c0-0.2,0.1-0.4,0.1-0.6
			c0-9.6,0-19.1,0-28.8c0-0.2,0-0.4,0-0.5c0.1-0.2,0.1-0.5,0-0.7c0-0.2-0.1-0.4-0.3-0.5c-0.4-0.3-0.8-0.2-1.3-0.3c-0.5,0-1,0-1.5,0
			c-0.2-0.5-0.1-0.9-0.1-1.4C134.3,101.5,134.3,101.5,135.6,101.5z M156.5,124.4c0-2.6-0.2-4.4-1-6c-1.3-2.8-3.4-4.5-6.6-4.6
			c-3.2-0.1-5.7,1.3-7,4.2c-1.7,3.8-1.7,7.7,0.2,11.6c1.3,2.4,3.2,3.9,6,4.1c3,0.2,5.2-1.2,6.8-3.7
			C156.2,128,156.5,125.9,156.5,124.4z"/>
		<path class="st0" d="M203.7,104c0-0.5,0-1,0-1.5c-0.1-1-0.1-1,0.9-1c0.2,0,0.2,0,0.4-0.1c0.2,0,0.4,0.1,0.5,0.1
			c5.9,0,11.7,0,17.6,0c0.2,0,0.4,0,0.5-0.1c0.5,0.1,1,0.2,1.5,0.2c0.2,0.1,0.4,0.2,0.5,0.3c0.4,0.4,0.7,0.9,0.8,1.4
			c0.2,1.4,0.1,2.9,0.1,4.3c0,0.2-0.2,0.2-0.4,0.2c-1,0-2,0-3,0c0.1-0.2,0.2-0.5,0.1-0.7c0-0.5,0-0.9,0-1.3
			c-0.1-1.1-0.3-1.3-1.2-1.3c-3.8,0-7.4,0-11.2,0c-0.4,0-0.5,0.1-0.5,0.5c0,3.9,0,7.7,0,11.6c0,0.4,0.2,0.5,0.5,0.5
			c4.1,0,8,0,12.1,0c0.2,0,0.5,0,0.4,0.3c0,0.6-0.1,1.3,0,2c0,0.6,0,1.1-0.9,0.9c-3.7,0-7.4,0-11.1,0c-1.1-0.1-1.1-0.1-1.1,0.9
			c0,3.3,0,6.6,0,9.8c0,2,0.2,2.1,2.1,2c3.4,0,6.6,0,10,0c0.2,0,0.5,0,0.7,0c1,0,1.4-0.4,1.4-1.4c0-0.4,0.1-0.7,0-1.1
			c-0.1-0.7,0.2-1,0.9-0.9c0.5,0,0.9,0,1.3,0c0.2,0,0.5,0,0.7,0c0.2,0,0.3,0.1,0.3,0.3c0,1.4,0.1,2.8-0.1,4.1c-0.2,0.9-1.2,2-2,2
			c-5.3,0-10.6,0-15.9,0c-0.5,0-0.9,0-1.3-0.2c-0.9-0.2-1.5-0.7-1.6-1.7c-0.1-0.5-0.1-1-0.1-1.5c0-8.8,0-17.7,0-26.4
			c0-0.4-0.1-0.9,0-1.3c0-0.3-0.1-0.4-0.4-0.4c-0.7,0-1.4,0-2.2,0C203.8,104.6,203.6,104.4,203.7,104z"/>
		<path class="st2" d="M112.8,116c0-0.2,0-0.2,0-0.4c0-0.2,0.1-0.4,0-0.6c-0.2-1.4,0.7-2.3,1.7-2.9c1.4-0.9,3-1.2,4.6-1.3
			c1.5-0.2,3-0.1,4.5,0.1c0.1,0.1,0.2,0.2,0.4,0.1c2.1,0.5,3.9,1.4,5.2,3.3c0,0.2,0.2,0.3,0.2,0.5c0.7,1.6,0.9,3.4,1.1,5.2
			c0,2.1,0,4.2,0,6.3c0,1.6,0,3.2,0,4.8c-0.2,2,0.2,2.2,1.8,2c0.1,0,0.2,0,0.2,0c0.1,0,0.2,0.1,0.3,0c0.7-0.3,0.8,0.2,0.7,0.7
			c0,0.1,0,0.2,0,0.2c0,0.5,0,0.9,0,1.3c0,0.5-0.2,0.7-0.7,0.7c-1.2-0.1-2.3,0-3.4-0.1c-1.2,0-2.3-0.9-2.2-2.1c0-0.5,0-0.9,0-1.3
			c0-0.2,0.1-0.5-0.2-0.5c-0.2-0.1-0.3,0.2-0.4,0.4c-0.9,1.3-1.9,2.5-3.3,3.2c-2.2,1.1-4.5,1.4-6.8,0.9c-2-0.5-3.8-1.4-4.9-3.2
			c-0.8-1.2-1.1-2.5-1.1-3.9c0-1.2,0.2-2.3,0.7-3.3c1.3-2,3-3.4,5.3-4.1c2-0.5,4.1-0.9,6.3-1c1.3-0.1,2.5-0.1,3.8-0.1
			c0.4,0,0.5-0.1,0.5-0.5c-0.1-0.8-0.1-1.6-0.2-2.4c-0.3-1.6-0.9-3-2.5-3.6c-2.4-1-4.9-0.9-7.3,0.1c-0.5,0.2-0.9,0.5-1,1.1
			c-0.2,0.6-0.1,1.3-0.1,1.9c-0.1,0-0.2,0-0.2,0.1c-0.9,0-1.8,0-2.7,0c-0.1-0.1-0.4,0.1-0.3-0.3C112.9,116.7,112.8,116.4,112.8,116z
			 M127.2,124.8c0-0.2,0-0.4,0.1-0.5c0.1-0.6-0.1-0.9-0.8-0.9c-1.9,0.1-3.8,0-5.6,0.3c-1.7,0.2-3.4,0.6-4.8,1.6
			c-2.8,2-2.5,6.2,0.5,7.7c2.3,1.3,5.4,0.8,7.4-1.1C126.1,130.1,127,127.6,127.2,124.8z M127.2,131.9c0.2-0.2,0.2-0.3,0.2-0.6
			C127.2,131.6,127,131.7,127.2,131.9z"/>
		<path class="st0" d="M107.8,130.8c0,0.8,0,1.6,0,2.4c0,0.2-0.1,0.4-0.1,0.6c-0.2,1.5-1.1,2.3-2.7,2.3c-5.1,0-10.2,0-15.3-0.1
			c-1.4,0-2-0.9-2.2-1.9c-0.2-0.7-0.1-1.3-0.1-2c0-8,0-16.1,0-24.2c0-0.7,0-1.4,0-2.1c0-1-0.3-1.3-1.3-1.3c-0.5,0-0.9,0-1.3,0
			c-0.4,0-0.5-0.1-0.5-0.5c0-0.6,0.1-1.3,0-2c-0.1-0.5,0.1-0.7,0.5-0.7c0.8,0.1,1.6,0.1,2.4,0c0.2,0,0.5,0.1,0.6,0.1
			c0.9,0,1.7,0.2,2.4,0.8c0,0.1,0.1,0.1,0.1,0.2c0.4,0.7,0.5,1.5,0.5,2.3c0,9,0,17.9,0,26.9c0,1.1,0.3,1.4,1.5,1.3c3.4,0,6.6,0,10,0
			c0.2,0,0.5,0,0.7,0c1.1,0,1.4-0.3,1.4-1.4c0-0.4,0.1-0.8,0-1.2c-0.1-0.7,0.2-1,0.9-0.9c0.5,0,0.9,0,1.3,0c1,0.1,1,0.1,1.1,1.1
			C107.8,130.7,107.8,130.8,107.8,130.8z"/>
		<path class="st3" d="M277,102.6c0.2-0.7-0.2-0.7-0.7-0.7c-0.1,0-0.3,0.2-0.3-0.1c0-0.2-0.1-0.4,0.2-0.4c0.7,0,1.4,0,2.1,0
			c0.2,0,0.3,0.2,0.3,0.3c0,0.2-0.2,0.2-0.3,0.2c-0.7-0.2-0.7,0.2-0.7,0.8c0,0.5,0,1,0,1.5c0,0.2,0,0.3-0.2,0.3s-0.3-0.1-0.4-0.3
			C277,103.7,277,103.2,277,102.6z"/>
		<path class="st3" d="M281.2,103c-0.2,0.2-0.2,0.5-0.4,0.8c-0.1,0.2-0.2,0.3-0.4,0.3c-0.2,0-0.3-0.2-0.4-0.3
			c-0.1-0.2-0.2-0.5-0.5-0.9c-0.1,0.7-0.2,1.3-0.2,1.8c-0.2,0-0.3,0-0.5,0c0.1-0.9-0.2-1.8,0.2-2.7c0.1-0.2-0.1-0.4,0.2-0.4
			c0.2,0,0.4,0.1,0.5,0.3c0.2,0.5,0.5,0.9,0.7,1.4c0.2-0.5,0.5-0.9,0.6-1.3c0.1-0.2,0.2-0.4,0.5-0.4c0.3,0,0.2,0.2,0.2,0.4
			c0.2,0.8,0,1.6,0.2,2.3c0.1,0.2,0,0.3-0.2,0.3c-0.2,0-0.3,0-0.3-0.2C281.3,103.8,281.3,103.4,281.2,103
			C281.3,103,281.2,102.9,281.2,103C281.2,102.9,281.2,102.9,281.2,103z"/>
		<path class="st4" d="M281.2,103L281.2,103C281.3,102.9,281.3,102.9,281.2,103C281.3,103,281.2,103,281.2,103z"/>
	</g>
</g>
</svg>
