<svg xmlns="http://www.w3.org/2000/svg" xmlns:xlink="http://www.w3.org/1999/xlink" width="500" zoomAndPan="magnify" viewBox="0 0 375 374.999991" height="500" preserveAspectRatio="xMidYMid meet" version="1.0"><path fill="#4e4f51" d="M 274.175781 291.238281 C 274.351562 291.238281 274.527344 291.238281 274.527344 291.238281 C 275.230469 291.238281 275.933594 291.414062 276.636719 291.414062 C 278.921875 291.414062 281.03125 291.9375 282.085938 294.222656 C 282.613281 295.277344 282.789062 296.507812 283.140625 297.734375 C 284.371094 302.480469 285.601562 306.871094 286.65625 311.613281 C 287.535156 315.652344 288.765625 319.519531 289.644531 323.558594 C 289.996094 325.492188 290.699219 327.421875 291.226562 329.355469 C 292.105469 334.097656 293.6875 338.839844 294.566406 343.757812 C 294.917969 343.40625 295.09375 342.878906 295.269531 342.703125 C 296.148438 339.191406 297.203125 335.679688 298.082031 332.339844 C 298.960938 329.003906 300.191406 325.839844 300.894531 322.503906 C 301.246094 320.921875 301.949219 318.992188 302.476562 317.410156 C 303.355469 314.25 304.410156 310.910156 305.289062 307.75 C 305.816406 305.464844 306.519531 303.355469 307.046875 301.074219 C 307.925781 298.261719 308.628906 295.628906 309.507812 292.640625 C 309.683594 291.9375 309.859375 291.765625 310.5625 291.765625 C 312.144531 291.765625 313.546875 291.765625 315.128906 291.765625 C 315.832031 291.765625 316.007812 292.113281 316.007812 292.640625 C 316.359375 294.574219 317.238281 296.683594 317.589844 298.613281 C 318.292969 301.777344 319.171875 304.9375 320.050781 308.101562 C 320.929688 311.613281 321.808594 315.300781 322.863281 318.816406 C 323.742188 321.625 324.445312 324.613281 325.148438 327.421875 C 325.148438 327.773438 325.148438 327.949219 325.324219 328.125 C 325.324219 328.300781 325.324219 328.476562 325.324219 328.652344 C 326.378906 332.691406 327.609375 336.90625 328.488281 340.949219 C 328.664062 341.652344 328.839844 342.355469 328.839844 343.054688 C 328.839844 343.40625 329.015625 343.582031 329.191406 343.40625 C 329.542969 343.40625 329.367188 343.054688 329.367188 343.054688 C 329.71875 341.828125 329.894531 340.597656 330.246094 339.367188 C 331.300781 334.976562 332.53125 330.410156 333.585938 326.015625 C 334.640625 321.800781 335.695312 317.585938 336.75 313.371094 C 338.332031 307.398438 339.5625 301.777344 341.144531 295.804688 C 342.023438 292.816406 343.253906 291.765625 346.417969 291.589844 C 346.945312 291.589844 347.296875 291.414062 348 291.414062 C 348.878906 291.589844 349.582031 291.589844 350.285156 291.414062 C 351.164062 291.414062 351.164062 291.765625 351.164062 292.464844 C 351.164062 293.167969 351.164062 293.871094 351.164062 294.75 C 351.164062 297.035156 351.164062 297.035156 348.878906 297.210938 C 348.351562 297.035156 348 297.386719 347.648438 297.910156 C 347.296875 298.261719 347.121094 298.789062 347.121094 299.140625 C 346.417969 301.601562 345.890625 304.058594 345.1875 306.34375 C 344.308594 309.855469 343.605469 313.546875 342.375 317.058594 C 340.792969 322.503906 339.5625 328.125 337.980469 333.746094 C 336.398438 339.71875 334.816406 345.691406 333.234375 351.664062 C 333.058594 352.191406 332.882812 352.367188 332.53125 352.367188 C 330.421875 352.367188 328.488281 352.367188 326.554688 352.367188 C 326.027344 352.367188 325.851562 352.015625 325.675781 351.664062 C 325.148438 350.609375 325.148438 349.378906 324.796875 348.148438 C 323.917969 345.339844 323.214844 342.355469 322.335938 339.542969 C 321.457031 335.855469 320.578125 332.339844 319.523438 328.476562 C 318.996094 326.542969 318.46875 324.613281 317.941406 322.855469 C 317.0625 319.519531 316.183594 316.179688 315.304688 313.019531 C 314.777344 310.558594 314.074219 308.277344 313.546875 305.816406 C 313.195312 304.585938 312.84375 303.355469 312.667969 301.953125 C 312.316406 302.128906 312.144531 302.304688 312.144531 302.65625 C 311.441406 306.34375 310.386719 310.03125 309.332031 313.722656 C 306.519531 322.855469 304.058594 332.339844 301.246094 341.476562 C 300.71875 343.054688 300.367188 344.988281 299.839844 346.570312 C 299.3125 347.976562 298.960938 349.203125 298.785156 350.609375 C 298.785156 352.015625 297.90625 352.542969 296.5 352.542969 C 294.917969 352.542969 293.160156 352.367188 291.753906 352.542969 C 290.875 352.542969 290.699219 352.191406 290.523438 351.664062 C 289.820312 348.152344 288.941406 344.988281 288.0625 341.652344 C 287.359375 339.367188 286.65625 337.082031 286.304688 334.800781 C 285.601562 331.8125 284.722656 328.828125 284.019531 325.667969 C 283.667969 324.085938 282.964844 322.328125 282.613281 320.746094 C 281.734375 316.882812 280.503906 313.195312 279.800781 309.328125 C 279.097656 306.167969 278.21875 303.007812 277.339844 300.019531 C 276.988281 298.789062 276.460938 297.558594 275.054688 297.210938 C 274.351562 297.035156 273.472656 297.558594 273.121094 296.859375 C 272.769531 296.15625 272.945312 295.277344 272.945312 294.574219 C 272.945312 294.046875 272.945312 293.519531 272.945312 292.992188 C 272.769531 291.414062 273.121094 291.238281 274.175781 291.238281 Z M 274.175781 291.238281 " fill-opacity="1" fill-rule="nonzero"/><path fill="#4d4e50" d="M 148.324219 291.238281 C 148.675781 291.414062 148.675781 291.414062 149.027344 291.238281 C 149.730469 291.238281 150.257812 291.414062 150.960938 291.414062 C 152.542969 291.589844 153.773438 292.289062 154.476562 293.695312 C 155.355469 295.277344 156.058594 297.035156 156.761719 298.789062 C 157.640625 301.601562 158.695312 304.234375 159.574219 307.046875 C 161.15625 311.085938 162.386719 314.949219 163.96875 318.816406 C 165.375 322.503906 166.78125 326.015625 168.011719 329.882812 C 169.417969 333.746094 170.996094 337.609375 172.050781 341.476562 C 172.402344 342.53125 172.578125 343.757812 172.929688 344.988281 C 173.808594 342.179688 174.335938 339.71875 175.214844 337.082031 C 177.148438 332.164062 178.730469 327.070312 180.664062 322.152344 C 181.71875 319.167969 182.949219 316.179688 184.003906 313.019531 C 184.882812 310.207031 186.113281 307.222656 187.167969 304.410156 C 188.046875 302.128906 188.75 300.019531 189.453125 297.734375 C 190.332031 295.804688 190.859375 293.695312 192.441406 292.113281 C 192.792969 291.765625 193.144531 291.589844 193.671875 291.414062 C 195.078125 291.0625 196.484375 291.0625 197.714844 291.0625 C 198.066406 291.0625 198.59375 291.238281 198.945312 291.238281 C 205.976562 291.238281 213.007812 291.238281 220.039062 291.238281 C 220.390625 291.238281 220.917969 291.238281 221.269531 291.0625 C 222.324219 291.0625 222.851562 291.414062 222.675781 292.640625 C 222.5 293.519531 222.675781 294.75 222.675781 295.628906 C 222.675781 296.332031 222.324219 296.507812 221.796875 296.507812 C 220.566406 296.507812 219.335938 296.507812 217.929688 296.507812 C 217.050781 296.507812 216.875 296.683594 216.875 297.558594 C 216.875 313.195312 216.875 328.828125 216.875 344.285156 C 216.875 346.394531 216.875 346.394531 218.984375 346.21875 C 219.863281 346.21875 220.566406 346.21875 221.269531 346.21875 C 221.621094 346.570312 222.675781 345.867188 222.675781 346.921875 C 222.675781 348.5 222.675781 350.257812 222.675781 351.664062 C 222.148438 351.664062 221.796875 351.664062 221.269531 351.664062 C 216.875 351.664062 212.65625 351.664062 208.261719 351.664062 C 207.382812 351.664062 205.976562 352.015625 205.449219 351.488281 C 204.921875 350.960938 205.273438 349.554688 205.273438 348.675781 C 205.273438 346.394531 205.273438 346.394531 207.558594 346.21875 C 208.4375 346.21875 209.140625 346.21875 209.84375 346.21875 C 210.898438 346.570312 210.898438 345.867188 210.898438 344.988281 C 210.898438 329.53125 210.898438 314.25 210.898438 298.789062 C 210.898438 298.261719 210.722656 297.558594 210.898438 297.035156 C 210.898438 296.507812 210.722656 296.332031 210.195312 296.332031 C 206.328125 296.332031 202.636719 296.332031 198.769531 296.332031 C 197.890625 296.332031 197.1875 296.683594 196.484375 297.734375 C 195.429688 300.019531 194.726562 302.480469 193.671875 304.585938 C 192.792969 306.695312 192.265625 308.628906 191.386719 310.734375 C 190.15625 313.722656 189.101562 316.882812 187.871094 320.042969 C 186.289062 324.085938 184.882812 328.125 183.300781 332.339844 C 182.421875 334.800781 181.542969 337.257812 180.488281 339.71875 C 178.90625 343.40625 177.675781 347.097656 176.445312 350.960938 C 176.09375 351.664062 175.742188 351.839844 175.039062 351.839844 C 173.808594 351.839844 172.753906 351.839844 171.523438 351.839844 C 169.417969 351.839844 169.242188 351.839844 168.714844 350.082031 C 166.957031 344.8125 164.847656 339.71875 162.914062 334.625 C 161.859375 331.460938 160.628906 328.476562 159.398438 325.316406 C 158.34375 322.328125 157.113281 319.34375 155.882812 316.179688 C 154.828125 313.195312 153.597656 310.03125 152.367188 307.046875 C 151.488281 304.761719 150.609375 302.304688 149.730469 299.84375 C 149.027344 297.558594 148.324219 297.035156 145.863281 296.859375 C 145.511719 296.859375 145.335938 296.859375 145.160156 296.507812 C 145.160156 294.75 145.160156 292.992188 145.160156 291.238281 C 146.742188 291.238281 147.621094 291.238281 148.324219 291.238281 Z M 148.324219 291.238281 " fill-opacity="1" fill-rule="nonzero"/><path fill="#4d4e50" d="M 108.597656 291.238281 C 109.476562 291.414062 110.179688 291.414062 110.882812 291.238281 C 111.761719 291.238281 112.992188 291.238281 113.871094 291.414062 C 115.980469 291.765625 117.210938 292.992188 117.386719 294.925781 C 117.386719 295.277344 117.5625 295.628906 117.5625 295.980469 C 117.5625 302.128906 117.5625 308.453125 117.386719 314.597656 C 117.386719 314.949219 117.035156 315.300781 117.5625 315.476562 C 117.914062 315.652344 117.914062 315.125 117.914062 314.949219 C 118.265625 313.722656 119.496094 312.84375 120.199219 311.964844 C 121.078125 311.085938 122.308594 309.855469 123.539062 309.328125 C 127.230469 307.75 131.097656 307.046875 135.140625 307.75 C 140.414062 308.628906 144.457031 311.261719 147.269531 315.652344 C 148.148438 317.234375 149.378906 318.816406 149.730469 320.570312 C 150.609375 323.382812 151.136719 326.542969 151.136719 329.53125 C 151.136719 330.058594 151.136719 330.585938 151.136719 331.113281 C 150.960938 334.976562 150.433594 338.664062 148.675781 342.179688 C 147.445312 344.8125 145.863281 347.097656 143.578125 348.851562 C 140.0625 351.664062 136.019531 353.070312 131.449219 353.070312 C 131.097656 353.070312 130.570312 353.070312 130.21875 353.070312 C 129.691406 353.070312 128.988281 352.894531 128.460938 352.894531 C 126.878906 352.542969 125.121094 352.542969 123.714844 351.488281 C 121.429688 350.082031 119.496094 348.675781 118.089844 346.570312 C 117.914062 346.21875 117.738281 346.042969 117.5625 345.867188 C 117.386719 345.515625 117.210938 345.164062 116.859375 344.8125 C 117.035156 345.164062 117.035156 345.515625 117.035156 345.867188 C 117.035156 347.625 117.035156 349.378906 117.035156 351.136719 C 117.035156 351.664062 116.859375 352.015625 116.332031 352.015625 C 114.75 352.015625 113.519531 352.015625 111.9375 352.015625 C 111.585938 352.015625 111.234375 352.015625 111.058594 351.488281 C 111.058594 351.136719 111.234375 350.785156 111.234375 350.433594 C 111.234375 333.570312 111.234375 316.882812 111.234375 299.84375 C 111.234375 299.492188 111.234375 299.140625 111.234375 298.964844 C 111.410156 298.613281 111.410156 298.085938 111.234375 297.734375 C 111.234375 297.386719 111.058594 297.035156 110.707031 296.859375 C 110.003906 296.332031 109.300781 296.507812 108.421875 296.332031 C 107.542969 296.332031 106.664062 296.332031 105.785156 296.332031 C 105.433594 295.453125 105.609375 294.75 105.609375 293.871094 C 106.3125 291.238281 106.3125 291.238281 108.597656 291.238281 Z M 145.335938 331.460938 C 145.335938 326.894531 144.984375 323.734375 143.578125 320.921875 C 141.292969 316.003906 137.601562 313.019531 131.976562 312.84375 C 126.351562 312.667969 121.957031 315.125 119.671875 320.21875 C 116.683594 326.894531 116.683594 333.746094 120.023438 340.597656 C 122.308594 344.8125 125.648438 347.449219 130.570312 347.800781 C 135.84375 348.152344 139.710938 345.691406 142.523438 341.300781 C 144.808594 337.785156 145.335938 334.097656 145.335938 331.460938 Z M 145.335938 331.460938 " fill-opacity="1" fill-rule="nonzero"/><path fill="#4d4e50" d="M 228.300781 295.628906 C 228.300781 294.75 228.300781 293.871094 228.300781 292.992188 C 228.125 291.238281 228.125 291.238281 229.882812 291.238281 C 230.234375 291.238281 230.234375 291.238281 230.585938 291.0625 C 230.9375 291.0625 231.289062 291.238281 231.464844 291.238281 C 241.832031 291.238281 252.027344 291.238281 262.398438 291.238281 C 262.75 291.238281 263.101562 291.238281 263.277344 291.0625 C 264.15625 291.238281 265.035156 291.414062 265.914062 291.414062 C 266.265625 291.589844 266.617188 291.765625 266.792969 291.9375 C 267.496094 292.640625 268.023438 293.519531 268.199219 294.398438 C 268.550781 296.859375 268.375 299.492188 268.375 301.953125 C 268.375 302.304688 268.023438 302.304688 267.671875 302.304688 C 265.914062 302.304688 264.15625 302.304688 262.398438 302.304688 C 262.574219 301.953125 262.75 301.425781 262.574219 301.074219 C 262.574219 300.195312 262.574219 299.492188 262.574219 298.789062 C 262.398438 296.859375 262.046875 296.507812 260.464844 296.507812 C 253.785156 296.507812 247.457031 296.507812 240.78125 296.507812 C 240.078125 296.507812 239.902344 296.683594 239.902344 297.386719 C 239.902344 304.234375 239.902344 310.910156 239.902344 317.761719 C 239.902344 318.464844 240.253906 318.640625 240.78125 318.640625 C 247.984375 318.640625 254.839844 318.640625 262.046875 318.640625 C 262.398438 318.640625 262.925781 318.640625 262.75 319.167969 C 262.75 320.21875 262.574219 321.449219 262.75 322.679688 C 262.75 323.734375 262.75 324.613281 261.167969 324.261719 C 254.664062 324.261719 248.160156 324.261719 241.660156 324.261719 C 239.726562 324.085938 239.726562 324.085938 239.726562 325.839844 C 239.726562 331.636719 239.726562 337.433594 239.726562 343.054688 C 239.726562 346.570312 240.078125 346.746094 243.414062 346.570312 C 249.390625 346.570312 255.015625 346.570312 260.992188 346.570312 C 261.34375 346.570312 261.871094 346.570312 262.222656 346.570312 C 263.980469 346.570312 264.683594 345.867188 264.683594 344.109375 C 264.683594 343.40625 264.859375 342.878906 264.683594 342.179688 C 264.507812 340.949219 265.035156 340.421875 266.265625 340.597656 C 267.144531 340.597656 267.847656 340.597656 268.550781 340.597656 C 268.902344 340.597656 269.429688 340.597656 269.78125 340.597656 C 270.132812 340.597656 270.308594 340.773438 270.308594 341.125 C 270.308594 343.582031 270.484375 346.042969 270.132812 348.324219 C 269.78125 349.90625 268.023438 351.839844 266.617188 351.839844 C 257.300781 351.839844 247.984375 351.839844 238.671875 351.839844 C 237.792969 351.839844 237.089844 351.839844 236.386719 351.488281 C 234.804688 351.136719 233.75 350.257812 233.574219 348.5 C 233.398438 347.625 233.398438 346.746094 233.398438 345.867188 C 233.398438 330.410156 233.398438 314.773438 233.398438 299.492188 C 233.398438 298.789062 233.222656 297.910156 233.398438 297.210938 C 233.398438 296.683594 233.222656 296.507812 232.695312 296.507812 C 231.464844 296.507812 230.234375 296.507812 228.828125 296.507812 C 228.476562 296.683594 228.125 296.332031 228.300781 295.628906 Z M 228.300781 295.628906 " fill-opacity="1" fill-rule="nonzero"/><path fill="#4e4f51" d="M 68.523438 316.707031 C 68.523438 316.355469 68.523438 316.355469 68.523438 316.003906 C 68.523438 315.652344 68.699219 315.300781 68.523438 314.949219 C 68.171875 312.492188 69.753906 310.910156 71.511719 309.855469 C 73.972656 308.277344 76.785156 307.75 79.597656 307.574219 C 82.234375 307.222656 84.871094 307.398438 87.507812 307.75 C 87.683594 307.925781 87.859375 308.101562 88.210938 307.925781 C 91.902344 308.800781 95.066406 310.382812 97.351562 313.722656 C 97.351562 314.074219 97.703125 314.25 97.703125 314.597656 C 98.929688 317.410156 99.28125 320.570312 99.632812 323.734375 C 99.632812 327.421875 99.632812 331.113281 99.632812 334.800781 C 99.632812 337.609375 99.632812 340.421875 99.632812 343.230469 C 99.28125 346.746094 99.984375 347.097656 102.796875 346.746094 C 102.972656 346.746094 103.148438 346.746094 103.148438 346.746094 C 103.324219 346.746094 103.5 346.921875 103.675781 346.746094 C 104.90625 346.21875 105.082031 347.097656 104.90625 347.976562 C 104.90625 348.148438 104.90625 348.324219 104.90625 348.324219 C 104.90625 349.203125 104.90625 349.90625 104.90625 350.609375 C 104.90625 351.488281 104.554688 351.839844 103.675781 351.839844 C 101.566406 351.664062 99.632812 351.839844 97.703125 351.664062 C 95.59375 351.664062 93.660156 350.082031 93.835938 347.976562 C 93.835938 347.097656 93.835938 346.394531 93.835938 345.691406 C 93.835938 345.339844 94.011719 344.8125 93.484375 344.8125 C 93.132812 344.636719 92.957031 345.164062 92.78125 345.515625 C 91.199219 347.800781 89.441406 349.90625 86.980469 351.136719 C 83.113281 353.070312 79.070312 353.597656 75.027344 352.71875 C 71.511719 351.839844 68.347656 350.257812 66.414062 347.097656 C 65.007812 344.988281 64.480469 342.703125 64.480469 340.246094 C 64.480469 338.136719 64.832031 336.207031 65.710938 334.449219 C 67.996094 330.9375 70.984375 328.476562 75.027344 327.246094 C 78.542969 326.367188 82.234375 325.664062 86.101562 325.492188 C 88.386719 325.316406 90.496094 325.316406 92.78125 325.316406 C 93.484375 325.316406 93.660156 325.140625 93.660156 324.4375 C 93.484375 323.03125 93.484375 321.625 93.308594 320.21875 C 92.78125 317.410156 91.726562 314.949219 88.914062 313.898438 C 84.695312 312.140625 80.300781 312.316406 76.082031 314.074219 C 75.203125 314.421875 74.5 314.949219 74.324219 316.003906 C 73.972656 317.058594 74.148438 318.289062 74.148438 319.34375 C 73.972656 319.34375 73.796875 319.34375 73.796875 319.519531 C 72.214844 319.519531 70.632812 319.519531 69.050781 319.519531 C 68.875 319.34375 68.347656 319.695312 68.523438 318.992188 C 68.699219 317.9375 68.523438 317.410156 68.523438 316.707031 Z M 93.835938 332.164062 C 93.835938 331.8125 93.835938 331.460938 94.011719 331.285156 C 94.1875 330.234375 93.835938 329.707031 92.605469 329.707031 C 89.265625 329.882812 85.925781 329.707031 82.761719 330.234375 C 79.773438 330.585938 76.785156 331.285156 74.324219 333.042969 C 69.402344 336.558594 69.929688 343.933594 75.203125 346.570312 C 79.246094 348.851562 84.695312 347.976562 88.210938 344.636719 C 91.902344 341.476562 93.484375 337.082031 93.835938 332.164062 Z M 93.835938 344.636719 C 94.1875 344.285156 94.1875 344.109375 94.1875 343.582031 C 93.835938 344.109375 93.484375 344.285156 93.835938 344.636719 Z M 93.835938 344.636719 " fill-opacity="1" fill-rule="nonzero"/><path fill="#4d4e50" d="M 59.734375 342.703125 C 59.734375 344.109375 59.734375 345.515625 59.734375 346.921875 C 59.734375 347.273438 59.558594 347.625 59.558594 347.976562 C 59.207031 350.609375 57.625 352.015625 54.8125 352.015625 C 45.847656 352.015625 36.882812 352.015625 27.917969 351.839844 C 25.460938 351.839844 24.40625 350.257812 24.054688 348.5 C 23.703125 347.273438 23.878906 346.21875 23.878906 344.988281 C 23.878906 330.9375 23.878906 316.707031 23.878906 302.480469 C 23.878906 301.25 23.878906 300.019531 23.878906 298.789062 C 23.878906 297.035156 23.351562 296.507812 21.59375 296.507812 C 20.714844 296.507812 20.011719 296.507812 19.308594 296.507812 C 18.605469 296.507812 18.429688 296.332031 18.429688 295.628906 C 18.429688 294.574219 18.605469 293.34375 18.429688 292.113281 C 18.253906 291.238281 18.605469 290.886719 19.308594 290.886719 C 20.714844 291.0625 22.121094 291.0625 23.527344 290.886719 C 23.878906 290.886719 24.40625 291.0625 24.582031 291.0625 C 26.164062 291.0625 27.566406 291.414062 28.796875 292.464844 C 28.796875 292.640625 28.972656 292.640625 28.972656 292.816406 C 29.675781 294.046875 29.851562 295.453125 29.851562 296.859375 C 29.851562 312.667969 29.851562 328.300781 29.851562 344.109375 C 29.851562 346.042969 30.378906 346.570312 32.488281 346.394531 C 38.464844 346.394531 44.089844 346.394531 50.066406 346.394531 C 50.417969 346.394531 50.945312 346.394531 51.296875 346.394531 C 53.230469 346.394531 53.757812 345.867188 53.757812 343.933594 C 53.757812 343.230469 53.933594 342.53125 53.757812 341.828125 C 53.582031 340.597656 54.109375 340.070312 55.339844 340.246094 C 56.21875 340.246094 56.921875 340.246094 57.625 340.246094 C 59.382812 340.421875 59.382812 340.421875 59.558594 342.179688 C 59.734375 342.527344 59.734375 342.703125 59.734375 342.703125 Z M 59.734375 342.703125 " fill-opacity="1" fill-rule="nonzero"/><path fill="#58595b" d="M 357.140625 293.167969 C 357.492188 291.9375 356.789062 291.9375 355.910156 291.9375 C 355.734375 291.9375 355.382812 292.289062 355.382812 291.765625 C 355.382812 291.414062 355.207031 291.0625 355.734375 291.0625 C 356.964844 291.0625 358.195312 291.0625 359.425781 291.0625 C 359.777344 291.0625 359.953125 291.414062 359.953125 291.589844 C 359.953125 291.9375 359.601562 291.9375 359.425781 291.9375 C 358.195312 291.589844 358.195312 292.289062 358.195312 293.34375 C 358.195312 294.222656 358.195312 295.101562 358.195312 295.980469 C 358.195312 296.332031 358.195312 296.507812 357.84375 296.507812 C 357.492188 296.507812 357.316406 296.332031 357.140625 295.980469 C 357.140625 295.101562 357.140625 294.222656 357.140625 293.167969 Z M 357.140625 293.167969 " fill-opacity="1" fill-rule="nonzero"/><path fill="#58595b" d="M 364.523438 293.871094 C 364.171875 294.222656 364.171875 294.75 363.820312 295.277344 C 363.644531 295.628906 363.46875 295.804688 363.117188 295.804688 C 362.765625 295.804688 362.589844 295.453125 362.414062 295.277344 C 362.238281 294.925781 362.0625 294.398438 361.535156 293.695312 C 361.359375 294.925781 361.183594 295.980469 361.183594 296.859375 C 360.832031 296.859375 360.65625 296.859375 360.304688 296.859375 C 360.480469 295.277344 359.953125 293.695312 360.65625 292.113281 C 360.832031 291.765625 360.480469 291.414062 361.007812 291.414062 C 361.359375 291.414062 361.710938 291.589844 361.886719 291.9375 C 362.238281 292.816406 362.765625 293.519531 363.117188 294.398438 C 363.46875 293.519531 363.996094 292.816406 364.171875 292.113281 C 364.347656 291.765625 364.523438 291.414062 365.050781 291.414062 C 365.578125 291.414062 365.402344 291.765625 365.402344 292.113281 C 365.753906 293.519531 365.402344 294.925781 365.753906 296.15625 C 365.929688 296.507812 365.753906 296.683594 365.402344 296.683594 C 365.050781 296.683594 364.875 296.683594 364.875 296.332031 C 364.699219 295.277344 364.699219 294.574219 364.523438 293.871094 C 364.699219 293.871094 364.523438 293.695312 364.523438 293.871094 C 364.523438 293.695312 364.523438 293.695312 364.523438 293.871094 Z M 364.523438 293.871094 " fill-opacity="1" fill-rule="nonzero"/><path fill="#fdfbed" d="M 364.523438 293.871094 C 364.699219 293.695312 364.699219 293.695312 364.523438 293.871094 C 364.699219 293.871094 364.523438 293.871094 364.523438 293.871094 Z M 364.523438 293.871094 " fill-opacity="1" fill-rule="nonzero"/><path fill="#4d4e50" d="M 107.6875 91.488281 L 204.144531 91.488281 L 204.144531 187.929688 L 107.6875 187.929688 Z M 107.6875 91.488281 " fill-opacity="1" fill-rule="nonzero"/><path fill="#fedd01" d="M 319.679688 143.949219 C 319.148438 142.886719 319.148438 142.359375 319.679688 141.296875 C 318.621094 140.238281 318.621094 139.179688 318.621094 138.121094 C 318.621094 137.589844 318.621094 137.589844 318.089844 137.058594 L 318.089844 136.53125 C 317.03125 135.46875 316.5 134.410156 316.5 133.351562 C 313.851562 128.582031 309.082031 125.402344 304.308594 122.75 C 303.25 122.75 303.25 122.222656 302.71875 121.691406 C 301.660156 121.160156 300.070312 120.632812 299.011719 120.101562 C 298.480469 119.574219 297.949219 119.574219 297.949219 119.042969 C 296.359375 118.511719 294.769531 117.984375 293.179688 116.394531 C 292.121094 116.394531 292.121094 115.863281 291.0625 115.332031 C 288.941406 114.804688 287.351562 114.273438 285.761719 112.683594 C 284.703125 112.683594 284.703125 112.152344 283.640625 111.625 C 283.109375 111.625 282.582031 111.09375 282.582031 111.09375 C 281.519531 111.09375 279.929688 110.035156 279.402344 109.503906 C 277.28125 108.972656 275.691406 107.914062 274.101562 106.855469 C 273.042969 106.855469 273.042969 106.324219 271.980469 105.792969 C 270.921875 105.265625 270.390625 104.734375 269.332031 104.734375 C 268.273438 104.734375 268.273438 104.203125 267.210938 103.675781 C 265.09375 103.144531 263.503906 102.085938 261.914062 101.027344 C 260.851562 101.027344 260.851562 100.496094 259.792969 99.964844 C 258.730469 99.964844 258.730469 99.4375 258.203125 98.90625 C 255.550781 97.847656 253.433594 96.785156 251.3125 95.195312 C 250.78125 95.195312 250.78125 95.195312 250.253906 94.667969 C 249.191406 94.667969 249.191406 94.136719 248.132812 93.605469 C 247.074219 93.605469 247.074219 93.078125 246.542969 92.546875 C 244.421875 92.015625 242.832031 91.488281 241.242188 89.898438 C 240.183594 89.898438 239.652344 89.367188 238.59375 88.835938 C 237.535156 88.308594 235.941406 88.308594 235.414062 87.246094 L 234.882812 87.246094 C 233.824219 87.246094 232.761719 86.71875 232.234375 86.1875 C 231.703125 86.1875 231.703125 86.1875 231.703125 85.65625 C 230.644531 85.65625 230.644531 85.128906 230.113281 84.597656 C 229.054688 84.597656 228.523438 84.066406 227.464844 83.539062 C 226.402344 83.007812 224.8125 82.476562 224.285156 81.949219 L 223.753906 81.949219 C 222.695312 81.949219 221.632812 81.417969 221.105469 80.890625 C 219.515625 79.828125 217.925781 79.300781 216.332031 78.238281 C 215.273438 77.710938 213.683594 77.179688 213.152344 76.648438 L 212.625 76.648438 C 211.5625 76.648438 210.503906 76.121094 209.972656 75.589844 C 208.382812 74.53125 206.792969 74 205.203125 72.941406 C 204.144531 72.410156 202.554688 72.410156 202.023438 71.351562 C 201.496094 71.351562 200.964844 70.820312 200.964844 70.820312 C 199.90625 70.820312 199.375 70.289062 198.84375 69.761719 C 198.316406 69.761719 198.316406 69.761719 198.316406 69.230469 C 197.253906 69.230469 196.726562 68.699219 196.726562 68.171875 C 194.605469 67.640625 193.015625 67.109375 191.425781 65.519531 C 190.894531 65.519531 190.363281 64.992188 190.363281 64.992188 C 189.304688 64.992188 188.773438 64.460938 187.714844 63.929688 C 187.183594 63.929688 187.183594 63.929688 187.183594 63.402344 C 184.535156 62.34375 181.886719 61.28125 179.765625 59.691406 C 179.234375 59.691406 178.707031 59.164062 178.707031 59.164062 C 177.644531 59.164062 177.117188 58.632812 176.054688 58.101562 C 175.527344 58.101562 175.527344 58.101562 175.527344 57.574219 C 174.464844 57.574219 174.464844 57.574219 173.9375 56.511719 C 172.875 56.511719 172.34375 55.984375 171.816406 55.453125 C 170.226562 54.921875 169.164062 54.394531 167.574219 53.332031 C 166.515625 53.332031 166.515625 52.804688 165.984375 52.273438 C 164.925781 52.273438 164.925781 52.273438 164.394531 51.214844 C 163.867188 51.214844 163.867188 51.214844 163.867188 50.683594 C 162.804688 50.683594 162.804688 50.152344 162.277344 49.625 C 161.214844 49.625 161.214844 49.09375 160.6875 48.5625 C 159.097656 48.035156 158.035156 47.503906 156.445312 46.445312 C 155.386719 46.445312 155.386719 45.914062 154.855469 45.382812 C 153.265625 44.855469 152.207031 44.324219 150.617188 43.265625 C 147.964844 42.207031 145.316406 41.144531 143.195312 39.554688 C 141.605469 39.027344 140.546875 38.496094 138.957031 37.4375 C 137.898438 37.4375 137.898438 37.4375 137.367188 36.375 C 135.777344 35.847656 134.71875 35.316406 133.128906 34.257812 C 132.066406 34.257812 132.066406 33.726562 131.539062 33.195312 C 130.476562 33.195312 130.476562 33.195312 129.949219 32.136719 C 128.886719 32.136719 127.828125 31.605469 127.296875 31.078125 C 126.238281 31.078125 126.238281 31.078125 125.707031 30.015625 C 124.117188 29.488281 123.058594 28.957031 121.46875 27.898438 C 120.40625 27.898438 120.40625 27.367188 119.878906 26.835938 C 118.816406 26.835938 118.816406 26.835938 118.289062 25.777344 C 117.226562 25.777344 116.167969 25.246094 115.636719 24.71875 C 114.578125 24.71875 114.578125 24.1875 114.046875 23.65625 C 112.457031 23.128906 111.398438 22.597656 109.808594 21.539062 C 108.75 21.539062 108.75 21.007812 108.21875 20.480469 C 107.15625 20.480469 107.15625 20.480469 106.628906 19.417969 C 105.039062 18.890625 103.449219 18.359375 101.859375 17.300781 C 100.796875 17.300781 100.796875 16.769531 99.738281 16.769531 C 99.207031 16.769531 98.679688 16.769531 98.679688 16.238281 C 97.617188 16.238281 97.617188 16.238281 96.558594 16.238281 C 95.5 16.238281 93.910156 16.238281 92.847656 16.238281 C 91.789062 16.238281 90.199219 16.238281 89.140625 16.769531 C 88.609375 17.300781 88.078125 17.828125 88.078125 17.300781 C 87.550781 17.300781 87.019531 17.828125 86.488281 17.828125 C 85.429688 18.890625 83.839844 19.417969 82.777344 19.949219 C 82.777344 19.949219 82.25 20.480469 82.25 19.949219 C 81.71875 20.480469 81.1875 20.480469 81.1875 21.007812 C 80.128906 21.539062 80.128906 22.070312 79.070312 22.597656 C 78.539062 23.65625 78.007812 23.65625 77.480469 23.65625 C 75.359375 26.308594 73.238281 28.957031 72.179688 32.136719 C 72.179688 33.195312 72.179688 33.726562 71.121094 34.257812 C 71.121094 34.785156 70.589844 35.316406 70.589844 35.847656 C 71.121094 36.90625 71.121094 37.4375 70.058594 37.964844 C 70.058594 39.554688 70.058594 40.617188 70.058594 42.734375 C 70.058594 107.914062 70.058594 173.09375 70.058594 238.800781 C 70.058594 240.921875 70.058594 243.570312 70.058594 245.691406 C 70.589844 246.222656 70.589844 246.75 70.589844 246.75 C 70.589844 247.28125 70.589844 247.8125 71.121094 248.339844 C 71.648438 248.871094 72.179688 249.402344 71.648438 249.402344 C 72.710938 250.992188 72.710938 252.578125 73.769531 254.167969 C 74.828125 254.699219 74.828125 255.230469 74.828125 255.757812 C 75.359375 256.820312 75.890625 256.820312 76.417969 257.878906 C 78.007812 258.410156 79.070312 259.46875 79.597656 260.527344 C 80.128906 260.527344 80.660156 261.058594 80.660156 261.589844 C 81.1875 261.589844 81.1875 262.117188 81.71875 262.117188 C 82.25 262.117188 82.25 262.117188 82.25 262.117188 C 83.839844 263.179688 86.488281 263.179688 87.550781 264.769531 C 88.078125 264.769531 88.078125 264.769531 88.609375 264.769531 C 89.667969 264.238281 90.199219 264.238281 90.730469 265.296875 C 92.847656 265.296875 94.4375 265.296875 96.558594 265.296875 C 97.617188 264.238281 98.148438 264.238281 99.207031 264.769531 C 99.738281 264.769531 100.269531 264.238281 100.796875 264.238281 C 101.328125 263.707031 101.859375 263.179688 101.859375 263.707031 C 102.917969 263.179688 103.449219 262.648438 104.507812 262.648438 C 105.566406 262.117188 106.628906 261.589844 107.160156 261.058594 C 108.21875 260 108.75 260 109.808594 260 C 110.867188 259.46875 111.398438 258.9375 112.457031 258.9375 C 113.519531 257.878906 114.046875 257.347656 115.109375 257.347656 C 118.289062 255.230469 121.996094 253.640625 125.707031 252.582031 C 126.238281 252.050781 126.238281 251.519531 126.765625 251.519531 C 129.417969 249.929688 132.066406 248.871094 135.246094 247.28125 C 136.308594 246.222656 136.835938 245.691406 137.898438 245.691406 C 138.957031 244.632812 140.015625 244.632812 140.546875 244.101562 C 141.605469 243.042969 142.667969 242.511719 143.726562 242.511719 C 144.785156 241.980469 145.316406 241.453125 146.375 241.453125 C 147.4375 240.390625 147.964844 240.390625 149.027344 240.390625 C 150.085938 239.332031 151.148438 239.332031 151.675781 238.800781 C 152.738281 237.742188 153.796875 237.210938 154.855469 237.210938 C 155.917969 236.683594 156.445312 236.152344 157.507812 236.152344 C 158.566406 235.09375 159.097656 235.09375 160.15625 235.09375 C 161.214844 234.03125 162.804688 232.972656 164.925781 232.972656 C 165.457031 231.914062 165.984375 231.914062 167.046875 231.914062 C 168.105469 231.382812 168.636719 230.855469 169.695312 230.855469 C 170.753906 229.792969 171.285156 229.792969 172.34375 229.792969 C 173.40625 228.734375 174.996094 227.675781 177.117188 227.675781 C 177.644531 226.613281 178.175781 226.613281 179.234375 226.613281 C 180.296875 226.085938 180.824219 225.554688 181.886719 225.554688 C 182.945312 224.496094 183.476562 224.496094 184.535156 224.496094 C 186.125 223.433594 187.714844 222.375 189.304688 221.84375 C 189.835938 221.316406 190.363281 221.316406 190.363281 220.785156 C 191.425781 220.253906 191.953125 219.726562 193.015625 219.726562 C 194.074219 218.664062 194.605469 218.664062 195.664062 218.664062 C 196.722656 217.605469 198.3125 216.546875 200.433594 216.546875 C 200.964844 215.488281 201.496094 215.488281 202.554688 215.488281 C 203.613281 214.957031 204.144531 214.425781 205.203125 214.425781 C 206.265625 213.367188 207.324219 212.835938 208.382812 212.835938 C 211.035156 211.246094 213.683594 210.1875 216.863281 208.597656 C 217.921875 207.539062 218.984375 207.007812 220.042969 207.007812 C 221.101562 206.476562 221.101562 205.949219 222.695312 205.949219 C 223.753906 204.886719 224.8125 204.886719 225.875 204.359375 C 226.933594 203.828125 227.464844 203.296875 228.523438 203.296875 C 229.582031 202.238281 229.582031 202.238281 231.171875 202.238281 C 232.234375 201.179688 233.824219 200.117188 235.941406 200.117188 C 236.472656 199.058594 237.003906 199.058594 238.0625 199.058594 C 239.121094 198.527344 239.652344 198 240.710938 198 C 241.773438 196.941406 241.773438 196.941406 243.363281 196.941406 C 244.421875 195.878906 246.011719 194.820312 248.132812 194.820312 C 248.664062 193.761719 249.191406 193.761719 250.253906 193.761719 C 251.3125 193.761719 251.3125 192.699219 252.902344 192.699219 C 253.960938 191.640625 255.023438 191.109375 256.082031 191.109375 C 257.140625 190.050781 258.730469 190.050781 260.320312 188.992188 C 260.851562 188.460938 261.382812 188.460938 261.382812 187.929688 C 262.441406 187.402344 262.972656 186.871094 264.03125 186.871094 C 265.089844 185.8125 266.152344 185.8125 266.679688 185.28125 C 267.742188 184.222656 269.332031 183.691406 270.390625 183.691406 C 270.921875 182.632812 271.453125 182.632812 272.511719 182.632812 C 273.042969 182.632812 273.570312 182.101562 273.570312 182.101562 C 274.632812 181.042969 276.222656 179.980469 278.339844 179.453125 C 279.402344 178.921875 280.992188 178.394531 282.050781 177.863281 C 283.109375 176.804688 283.640625 176.804688 284.699219 176.804688 C 285.230469 176.273438 285.761719 175.742188 285.761719 175.742188 C 285.761719 175.742188 286.289062 175.742188 286.820312 175.214844 C 287.878906 174.152344 288.410156 174.152344 289.46875 173.625 C 290.53125 173.09375 292.121094 172.5625 293.179688 172.035156 C 294.242188 170.972656 294.769531 170.972656 295.832031 170.972656 C 296.359375 170.445312 296.890625 169.914062 297.421875 169.914062 C 298.480469 168.855469 299.539062 168.324219 300.601562 167.792969 C 303.78125 166.203125 306.960938 164.613281 310.140625 162.496094 C 310.667969 162.496094 310.667969 161.964844 311.199219 161.964844 C 314.910156 158.785156 317.03125 155.078125 318.621094 150.308594 C 318.621094 149.246094 318.621094 148.71875 319.148438 148.1875 C 319.148438 147.128906 319.148438 147.128906 319.148438 146.066406 C 319.148438 146.597656 319.148438 145.539062 319.679688 143.949219 Z M 192.484375 139.707031 C 192.484375 143.949219 192.484375 148.1875 192.484375 151.898438 C 192.484375 154.546875 191.425781 155.078125 189.835938 154.546875 C 182.945312 154.546875 177.117188 154.546875 170.226562 154.546875 C 167.046875 154.546875 165.984375 155.605469 166.515625 158.785156 C 167.046875 165.675781 166.515625 171.503906 166.515625 178.390625 C 166.515625 181.042969 165.457031 181.570312 163.867188 181.570312 C 159.625 181.570312 155.386719 181.570312 151.148438 181.570312 C 149.558594 181.570312 148.496094 181.042969 148.496094 178.921875 C 148.496094 175.214844 148.496094 171.503906 148.496094 167.792969 C 148.496094 164.613281 148.496094 160.90625 148.496094 157.726562 C 148.496094 155.605469 147.96875 155.078125 145.847656 155.078125 C 138.957031 155.078125 132.066406 155.078125 125.707031 155.078125 C 123.058594 155.078125 122.527344 154.015625 122.527344 151.898438 C 122.527344 147.65625 122.527344 143.417969 122.527344 139.707031 C 122.527344 137.058594 123.585938 137.058594 125.707031 137.058594 C 132.597656 137.058594 138.957031 137.058594 145.847656 137.058594 C 148.496094 137.058594 149.027344 136 149.027344 133.878906 C 149.027344 126.992188 149.027344 120.632812 149.027344 113.742188 C 149.027344 111.09375 150.085938 111.09375 151.675781 111.09375 C 155.917969 111.09375 160.15625 111.625 163.867188 111.09375 C 166.515625 111.09375 167.046875 112.152344 167.046875 114.804688 C 167.046875 121.160156 167.046875 127.519531 167.046875 133.878906 C 167.046875 136.53125 168.105469 137.589844 170.757812 137.589844 C 177.117188 137.589844 183.476562 137.589844 189.835938 137.589844 C 191.953125 137.058594 192.484375 137.058594 192.484375 139.707031 Z M 192.484375 139.707031 " fill-opacity="1" fill-rule="nonzero"/></svg>